<svg xmlns="http://www.w3.org/2000/svg" width="1148.125" height="352.625" viewBox="0 0 1148.125 352.625">
  <metadata><?xpacket begin="﻿" id="W5M0MpCehiHzreSzNTczkc9d"?>
<x:xmpmeta xmlns:x="adobe:ns:meta/" x:xmptk="Adobe XMP Core 5.6-c142 79.160924, 2017/07/13-01:06:39        ">
   <rdf:RDF xmlns:rdf="http://www.w3.org/1999/02/22-rdf-syntax-ns#">
      <rdf:Description rdf:about=""/>
   </rdf:RDF>
</x:xmpmeta>
                                                                                                    
                                                                                                    
                                                                                                    
                                                                                                    
                                                                                                    
                                                                                                    
                                                                                                    
                                                                                                    
                                                                                                    
                                                                                                    
                                                                                                    
                                                                                                    
                                                                                                    
                                                                                                    
                                                                                                    
                                                                                                    
                                                                                                    
                                                                                                    
                                                                                                    
                                                                                                    
                           
<?xpacket end="w"?></metadata>
<defs>
    <style>
      .cls-1 {
        fill: #bdffff;
      }

      .cls-1, .cls-2, .cls-4, .cls-5 {
        fill-rule: evenodd;
      }

      .cls-2 {
        fill: #cff;
      }

      .cls-3 {
        fill: #b1ffff;
      }

      .cls-4 {
        fill: #b4fffd;
      }

      .cls-5 {
        fill: #b6ffff;
      }

      .cls-6 {
        fill: #b5ffff;
      }
    </style>
  </defs>
  <path class="cls-1" d="M654,546c113.274-10.619,206,66.262,206,148S767.743,844.509,654,842c-107.245-2.366-195.676-88.21-198.067-150.876C452.844,610.144,573.527,553.544,654,546Z" transform="translate(-455.875 -545.031)"/>
  <path class="cls-2" d="M830,671c108.248,0,196,51.487,196,115,0,61.92-93.738,123.705-199.6,109.611C735.5,883.509,648.068,838.535,634,786,617.571,724.649,721.752,671,830,671Z" transform="translate(-455.875 -545.031)"/>
  <ellipse class="cls-3" cx="608.125" cy="127.969" rx="204" ry="115"/>
  <path class="cls-4" d="M1059,716c67.93,0,123,31.34,123,70s-55.13,72.83-123,70c-63.447-2.646-83.013-54.931-106.715-79.607C925.5,748.511,991.069,716,1059,716Z" transform="translate(-455.875 -545.031)"/>
  <path class="cls-2" d="M1344,658c139.82-4.14,258.42,15.416,260,88,1.14,52.123-98.7,88.02-250.32,112.164C1220.66,879.346,1091.07,816.2,1084,746,1074.05,647.278,1201.01,662.234,1344,658Z" transform="translate(-455.875 -545.031)"/>
  <path class="cls-5" d="M1321,578c75.66,0,137,30,137,67s-59.79,45.775-135,54c-89.46,9.782-167.25,3.034-139-54C1200.42,611.841,1245.34,578,1321,578Z" transform="translate(-455.875 -545.031)"/>
  <ellipse class="cls-6" cx="406.125" cy="74.969" rx="126" ry="62"/>
</svg>
